<svg width="199" height="205" viewBox="0 0 199 205" fill="none" xmlns="http://www.w3.org/2000/svg">
<path fill-rule="evenodd" clip-rule="evenodd" d="M82.6599 8.07819C89.3329 12.7646 94.1372 19.1202 96.9048 26.1834C98.0134 23.4922 99.4348 20.8811 101.178 18.3994C113.874 0.320926 138.822 -4.04217 156.9 8.65419C174.979 21.3505 179.342 46.2985 166.646 64.377C163.15 69.3544 158.726 73.2921 153.772 76.1204C163.19 75.0165 173.033 77.2379 181.404 83.1164C199.482 95.8128 203.845 120.761 191.149 138.839C178.768 156.469 154.736 161.056 136.785 149.499C141.856 161.728 140.751 176.21 132.579 187.846C119.883 205.924 94.935 210.287 76.8565 197.591C60.9661 186.431 55.672 165.806 63.245 148.701C49.9087 157.623 31.9185 157.96 18 148.185C-0.0785259 135.489 -4.44161 110.541 8.25474 92.4624C15.7663 81.7666 27.5663 75.8716 39.6949 75.4698C38.6724 74.8789 37.6672 74.2379 36.6823 73.5462C18.6038 60.8499 14.2407 35.9019 26.9371 17.8234C39.6335 -0.25507 64.5814 -4.61816 82.6599 8.07819Z" fill="url(#paint0_linear_260_2459)"/>
<defs>
<linearGradient id="paint0_linear_260_2459" x1="33.1068" y1="58.1694" x2="164.043" y2="150.125" gradientUnits="userSpaceOnUse">
<stop stop-color="#F2EAE1"/>
<stop offset="1" stop-color="#F59CBD"/>
</linearGradient>
</defs>
</svg>
