<svg width="279" height="219" viewBox="0 0 279 219" fill="none" xmlns="http://www.w3.org/2000/svg">
<path d="M232.363 128.87C232.378 133.851 232.393 138.832 232.335 144.014C232.195 144.275 232.131 144.337 232.071 144.402C231.95 145.036 231.779 145.666 231.716 146.306C231.235 151.25 230.974 156.222 230.256 161.134C229.388 167.067 228.5 173.038 226.945 178.829C225.565 183.964 223.39 188.923 221.329 193.871C219.343 198.642 216.75 203.135 213.314 207.14C213.016 207.488 212.557 207.711 212.172 207.991C211.786 207.463 211.148 206.969 211.06 206.399C210.807 204.744 210.661 203.057 210.674 201.383C210.724 194.757 209.348 188.306 208.134 181.833C206.481 173.018 203.98 164.407 200.803 155.997C197.591 147.497 193.495 139.352 188.186 131.836C185.059 127.41 181.564 123.216 178.206 118.937C177.616 118.184 176.888 117.528 176.224 116.828C176.04 116.895 175.856 116.962 175.672 117.029C175.562 117.57 175.325 118.12 175.363 118.652C175.801 124.727 176.625 130.796 176.67 136.872C176.745 146.885 174.341 156.505 170.334 165.761C168.102 170.918 165.732 176.02 162.174 180.5C160.126 183.079 157.951 185.582 155.663 187.971C152.632 191.134 149.569 194.29 146.273 197.198C142.312 200.692 138.161 204.004 133.962 207.243C129.96 210.33 125.828 213.268 121.673 216.169C120.44 217.03 118.939 217.544 117.561 218.218C117.386 218.081 117.211 217.945 117.036 217.809C117.475 216.306 117.936 214.808 118.35 213.299C120.679 204.827 123.248 196.405 125.224 187.86C126.45 182.556 126.736 177.059 127.508 171.657C128.36 165.704 127.583 159.809 126.745 153.942C126.008 148.78 124.883 143.667 123.903 138.536C123.825 138.129 123.543 137.757 123.132 136.905C122.681 137.822 122.198 138.359 122.179 138.911C121.945 145.675 118.927 151.573 115.302 157.083C111.309 163.15 106.967 169.072 102.164 174.575C98.586 178.674 94.2362 182.244 89.855 185.61C85.5934 188.884 80.9076 191.676 76.2992 194.52C74.4005 195.692 72.233 196.482 70.1534 197.373C69.6237 197.6 68.9629 197.552 68.0998 197.664C73.2484 181.857 77.6397 166.193 80.233 150.134C80.0757 149.999 79.9185 149.865 79.7612 149.731C78.4507 150.225 77.1479 150.738 75.8283 151.21C69.7024 153.397 63.4391 155.208 56.8349 154.897C51.572 154.649 46.3156 153.99 41.0982 153.248C37.1229 152.683 33.098 152.027 29.3059 150.817C25.3388 149.551 21.6427 147.532 17.7834 145.939C16.9071 145.578 15.849 145.514 14.8702 145.492C10.1039 145.387 5.54929 144.551 1.47825 142.063C-0.499879 140.855 -0.507167 138.622 1.54351 137.513C4.92713 135.684 8.67012 135.368 12.454 135.798C14.5722 136.038 16.3786 136.427 17.9109 134.258C19.6685 131.77 21.9643 129.625 24.005 127.314C24.2075 127.085 24.2618 126.738 24.3748 126.469C24.1978 126.339 24.118 126.235 24.0183 126.213C18.4993 125.009 16.1201 120.74 18.1405 115.632C19.105 113.194 20.5032 110.833 20.9637 108.314C21.4329 105.748 21.2073 103.009 20.8985 100.387C20.4505 96.5834 19.1998 92.8249 19.1282 89.0331C19.0484 84.8013 19.3476 80.485 21.4409 76.4976C24.2102 71.2225 26.7022 65.8158 29.4923 60.551C33.9495 52.1404 39.13 44.127 45.0755 36.5925C49.6797 30.7577 54.3664 24.9671 59.3207 19.401C62.2385 16.123 65.4536 12.9433 69.0624 10.3916C74.8145 6.32439 81.6483 4.28891 88.6165 2.90068C92.6186 2.10339 96.7316 1.82235 100.764 1.14546C111.341 -0.629863 122.007 0.167326 132.624 0.246417C140.137 0.302378 147.662 1.09969 155.145 1.87597C161.538 2.5391 167.939 3.37873 174.23 4.6208C181.798 6.11472 189.154 8.39963 196.031 11.8525C204.129 15.9187 211.762 20.682 218.896 26.1308C224.116 30.1176 229.228 34.2342 234.307 38.3831C237.35 40.8697 240.28 43.4863 243.181 46.1242C245.993 48.6816 248.75 51.2982 251.448 53.9641C257.65 60.0916 263.243 66.7011 268.449 73.6073C272.328 78.7524 275.355 84.3179 277.414 90.3407C277.845 91.6012 278.193 92.9002 278.417 94.2065C278.533 94.8861 278.294 95.6203 278.216 96.3298C277.897 96.4947 277.579 96.6595 277.26 96.8244C276.822 96.1546 276.495 95.381 275.929 94.8308C268.167 87.2963 259.915 80.2894 250.603 74.5151C243.95 70.3902 236.781 67.245 229 65.5296C223.599 64.3391 218.173 63.2532 212.741 62.1978C211.726 62.0005 210.631 62.1696 209.498 62.1696C211.829 65.2571 214.201 68.1819 216.329 71.2594C221.848 79.2439 225.436 88.018 227.775 97.2734C229.404 103.718 230.583 110.229 231.004 116.856C231.249 120.71 231.549 124.561 231.996 128.551C232.229 128.753 232.295 128.813 232.363 128.87ZM42.9488 111.384C45.1131 114.931 46.6952 118.661 46.9593 123.33C48.2324 122.452 49.3423 121.814 50.2931 121.007C53.2427 118.505 56.3311 116.109 58.9789 113.339C60.9543 111.272 62.7354 108.855 63.8946 106.304C67.0156 99.4354 67.8109 92.2179 66.088 84.8673C64.8278 79.491 62.9468 74.2979 60.0028 69.5212C57.9504 66.1911 53.4558 65.8405 51.2604 68.6184C50.5936 69.4621 49.8695 70.2699 49.2626 71.1507C46.3486 75.3803 43.3461 79.5609 40.6028 83.8889C37.3537 89.0149 34.1332 94.194 33.4584 100.327C37.4634 103.238 40.6285 106.828 42.9488 111.384ZM40.4164 122.607C38.994 120.269 37.4724 117.979 36.1813 115.577C35.1846 113.722 34.5097 111.714 33.6151 109.807C33.4211 109.394 32.8997 109.118 32.5292 108.78C32.3034 109.223 31.9845 109.647 31.8726 110.116C31.6792 110.925 31.5064 111.763 31.5137 112.587C31.5514 116.888 30.9789 121.195 31.8105 125.494C32.07 126.835 32.6123 127.734 34.0194 127.479C36.786 126.977 39.5056 126.242 42.4696 125.551C41.6665 124.361 41.1339 123.572 40.4164 122.607Z" fill="url(#paint0_linear_207_2261)"/>
<defs>
<linearGradient id="paint0_linear_207_2261" x1="139.224" y1="0" x2="139.224" y2="218.218" gradientUnits="userSpaceOnUse">
<stop stop-color="#F2EAE1"/>
<stop offset="1" stop-color="#F59CBD"/>
</linearGradient>
</defs>
</svg>
