<svg width="298" height="220" viewBox="0 0 298 220" fill="none" xmlns="http://www.w3.org/2000/svg">
<path d="M146.014 5.70648C146.407 5.80306 146.799 5.89965 147.278 6.12866C147.766 6.31254 148.166 6.36398 148.566 6.41543C148.817 6.48755 149.069 6.55966 149.394 6.75365C149.739 6.91197 150.01 6.94843 150.28 6.98489C153.199 7.95683 156.157 8.8268 159.029 9.92409C163.571 11.66 168.13 13.386 172.543 15.4154C177.453 17.6726 182.287 20.1235 187.007 22.7536C191.253 25.1202 195.389 27.7145 199.411 30.4477C202.998 32.8859 206.43 35.5684 209.806 38.2964C213.06 40.9255 216.155 43.7509 219.365 46.6287C219.749 47.2531 220.021 47.8057 220.436 48.2143C224.755 52.4699 229.072 56.7408 232.735 61.5809C236.092 66.0165 239.339 70.5459 242.413 75.1807C244.584 78.4532 246.689 81.8352 248.281 85.4092C250.991 91.4914 253.271 97.7647 255.745 103.952C255.924 104.402 256.211 104.808 256.448 105.235C256.694 106.2 256.917 107.173 257.19 108.131C257.636 109.699 258.105 111.261 258.584 112.819C258.969 114.073 259.391 115.316 259.781 116.569C260.045 117.419 260.281 118.278 260.576 119.267C261.178 119.663 261.711 120.061 262.297 120.17C269.255 121.458 276.264 122.181 283.353 122.087C285.013 122.065 286.687 122.21 288.337 122.417C290.867 122.734 293.383 123.172 295.904 123.559C296.247 123.853 296.591 124.146 296.932 124.443C297.856 125.25 297.903 126.268 297.909 127.438C297.917 129.323 297.611 131.089 296.679 132.702C295.668 134.45 294.655 136.216 293.448 137.827C289.603 142.958 285.622 147.995 280.861 152.321C277.692 155.2 274.327 157.866 271.036 160.611C270.339 161.193 269.542 161.659 268.87 162.265C268.559 162.545 268.364 163.013 268.241 163.433C267.136 167.193 265.278 170.518 262.596 173.386C259.525 176.67 256.092 179.53 252.208 181.783C250.098 183.006 247.79 183.886 245.585 184.951C245.062 185.203 244.529 185.504 244.114 185.902C241.401 188.498 238.756 191.166 236.019 193.737C232.245 197.282 228.17 200.425 223.471 202.685C222.908 202.956 222.349 203.236 221.796 203.642C221.927 203.896 222.029 204.087 222.176 204.134C224.651 204.914 227.131 205.676 229.653 206.503C230.58 206.808 231.464 207.051 232.348 207.294C232.949 207.65 233.551 208.006 234.244 208.45C235.12 209.475 235.905 210.411 236.69 211.348C237.673 215.089 235.426 217.07 232.577 218.337C229.178 219.849 225.644 219.758 221.972 218.725C221.633 218.522 221.444 218.333 221.218 218.262C217.087 216.974 213.481 214.744 210.083 212.127C209.829 211.931 209.448 211.9 209.126 211.792C205.924 212.488 202.751 213.474 199.511 213.807C195.233 214.247 190.881 214.508 186.601 214.228C182.298 213.946 178.039 212.938 173.773 212.176C172.514 211.951 171.299 211.48 169.932 211.054C169.429 210.788 169.072 210.555 168.684 210.397C166.054 209.326 163.361 208.393 160.794 207.191C150.011 202.142 140.258 195.539 131.434 187.552C130.834 187.009 130.056 186.662 129.361 186.224C126.617 185.864 123.874 185.493 121.128 185.151C120.221 185.038 119.306 184.973 118.393 184.93C116.487 184.841 114.58 184.768 112.672 184.712C109.842 184.629 107.01 184.48 104.181 184.519C100.934 184.564 97.6799 184.669 94.4464 184.949C86.6937 185.619 78.9706 186.632 71.4896 188.812C65.9249 190.434 60.3889 192.253 55.025 194.437C49.0225 196.882 43.1709 199.721 37.3602 202.603C31.8292 205.346 26.4454 208.384 20.9717 211.244C20.1201 211.689 19.1344 211.878 18.1049 212.088C17.9705 210.826 17.7712 209.635 17.9465 208.502C18.4071 205.525 18.9247 202.549 19.6096 199.617C21.5892 191.141 24.1822 182.84 27.4018 174.76C29.4335 169.661 31.572 164.566 34.1611 159.736C39.4894 149.795 46.6623 141.255 55.0699 133.74C60.015 129.32 65.3458 125.464 71.2533 122.42C71.6978 122.191 72.0315 121.747 72.4167 121.403C72.4177 121.316 72.4187 121.229 72.4234 121.02C72.1917 120.523 72.0171 120.086 71.7082 119.788C71.0463 119.15 70.3231 118.574 69.6108 117.989C60.1113 110.197 49.4617 104.552 37.7138 100.966C37.2879 100.836 36.8204 100.841 36.3723 100.784C33.2747 99.973 30.1998 99.0581 27.0738 98.3773C23.0843 97.5085 19.0629 96.7741 15.0376 96.0844C11.6955 95.5118 8.32862 95.0826 4.97126 94.6001C3.34491 94.3664 1.71519 94.1561 0 93.8324C0.285342 92.7592 0.44383 91.6156 1.06669 90.8481C3.90483 87.3508 6.82657 83.9179 9.80658 80.5397C13.9714 75.8183 18.5473 71.5022 23.4147 67.5188C29.572 62.4799 36.3292 58.37 43.5365 54.986C49.7317 52.0773 56.1233 49.7148 62.7459 48.0039C73.3536 45.2634 84.1422 44.1925 95.0725 44.9578C99.35 45.2573 103.603 45.9243 107.862 46.468C109.093 46.6251 110.297 46.9837 111.527 47.1642C113.284 47.4224 114.251 46.2685 113.718 44.6004C113.523 43.9926 113.334 43.372 113.044 42.8079C111.323 39.4632 109.632 36.1014 107.822 32.8046C103.121 24.2408 97.4725 16.3434 91.0069 9.01483C89.2017 6.96862 87.5357 4.78816 85.9415 2.57183C84.8774 1.0924 85.1398 0.60034 86.9265 0.435295C89.2576 0.219955 91.5995 0.0134171 93.9375 0.00354433C98.0566 -0.0138484 102.181 0.02904 106.295 0.215771C110.904 0.424951 115.511 0.743696 120.106 1.15562C126.844 1.75956 133.476 3.02083 140.052 4.5949C140.44 4.68772 140.897 4.49039 141.322 4.42807C141.559 4.49612 141.795 4.56418 142.127 4.73126C142.622 5.40994 143.084 5.60959 143.668 5.06728C143.905 5.13533 144.141 5.20338 144.473 5.37047C144.968 6.04915 145.43 6.24879 146.014 5.70648ZM242.095 182.28C242.227 182.163 242.379 182.062 242.488 181.926C245.278 178.436 247.73 174.722 249.722 170.725C250.3 169.566 250.713 168.305 251.03 167.048C251.203 166.361 251.303 165.468 250.117 165.113C249.501 165.326 248.759 165.388 248.29 165.778C246.316 167.423 244.421 169.165 242.501 170.875C239.869 173.217 237.236 175.558 234.617 177.915C234.365 178.142 233.972 178.592 234.046 178.741C234.632 179.924 233.923 180.987 233.518 181.852C231.486 186.191 228.311 189.649 224.545 192.571C221.794 194.707 218.812 196.438 215.527 197.654C215.078 197.82 214.647 198.447 214.51 198.944C214.311 199.663 214.861 200.091 215.619 200.416C216.331 200.637 217.074 201.105 217.749 201.022C218.814 200.891 219.877 200.485 220.865 200.031C228.378 196.578 234.445 191.263 239.871 185.146C240.641 184.278 241.281 183.295 242.095 182.28ZM155.691 165.865C156.782 166.227 156.899 165.317 157.174 164.687C157.88 163.065 158.48 161.394 159.236 159.796C161.586 154.832 164.599 150.291 168.277 146.212C170.839 143.37 173.505 140.624 176.713 138.476C177.92 137.667 179.223 137.201 180.697 137.172C181.153 137.162 181.604 136.893 182.21 136.769C183.129 136.986 183.515 137.729 183.727 138.506C184.278 140.519 183.95 142.495 183.249 144.416C182.406 146.723 181.638 149.067 180.637 151.306C179.078 154.795 177.203 158.119 174.467 160.857C172.377 162.948 170.34 165.113 168.08 167.006C166.132 168.637 163.925 169.966 161.783 171.354C161.125 171.78 160.805 172.22 160.926 173.106C161.272 174.909 162.578 176.073 163.766 177.306C163.871 177.415 164.214 177.297 164.538 177.405C164.812 177.724 165.04 178.106 165.368 178.353C168.126 180.429 171.084 182.145 174.456 183.368C174.851 183.589 175.228 183.856 175.645 184.023C178.736 185.258 181.992 185.763 185.268 186.212C190.675 186.952 196.074 187.749 201.476 188.531C202.315 188.652 203.147 188.823 204.065 189.098C205.471 189.99 206.877 190.883 208.362 191.901C209.06 192.673 209.928 192.47 210.584 192.025C211.361 191.498 211.972 190.719 212.614 190.012C212.669 189.951 212.419 189.614 212.145 189.398C211.536 189.169 210.923 188.949 210.32 188.706C210.087 188.611 209.882 188.375 209.653 188.357C208.915 188.298 208.171 188.311 207.338 188.188C207.132 188.054 206.942 187.876 206.718 187.79C203.841 186.687 201.975 184.604 200.929 181.767C199.463 177.787 199.03 173.611 198.925 169.423C198.7 160.453 198.733 151.476 198.438 142.51C198.233 136.251 196.769 130.202 194.204 124.473C191.534 118.51 187.209 114.197 181.025 111.87C180.613 111.715 180.14 111.72 179.524 111.631C176.719 110.83 173.856 110.507 170.982 111.025C164.791 112.142 160.118 115.569 156.665 120.738C155.323 122.747 154.068 124.806 153.349 127.148C152.708 129.239 151.91 131.287 151.352 133.399C150.864 135.249 150.566 137.154 150.271 139.048C149.997 140.81 149.763 142.585 149.65 144.364C149.547 145.991 149.58 147.631 149.649 149.262C149.698 150.439 149.871 151.615 150.051 152.782C150.236 153.981 150.495 155.169 150.688 156.492C150.682 156.632 150.626 156.794 150.677 156.908C151.904 159.629 153.134 162.349 154.397 165.052C154.475 165.219 154.834 165.256 155.156 165.469C155.305 165.573 155.455 165.677 155.691 165.865Z" fill="url(#paint0_linear_270_2499)"/>
<defs>
<linearGradient id="paint0_linear_270_2499" x1="148.954" y1="0" x2="148.954" y2="219.489" gradientUnits="userSpaceOnUse">
<stop stop-color="#F2EAE1"/>
<stop offset="1" stop-color="#F59CBD"/>
</linearGradient>
</defs>
</svg>
