<svg width="40" height="40" viewBox="0 0 40 40" fill="none" xmlns="http://www.w3.org/2000/svg">
<path d="M6.66668 33.3334C5.75001 33.3334 4.96529 33.007 4.31251 32.3542C3.65973 31.7015 3.33334 30.9167 3.33334 30.0001V10.0001C3.33334 9.08341 3.65973 8.29869 4.31251 7.64591C4.96529 6.99314 5.75001 6.66675 6.66668 6.66675H33.3333C34.25 6.66675 35.0347 6.99314 35.6875 7.64591C36.3403 8.29869 36.6667 9.08341 36.6667 10.0001V30.0001C36.6667 30.9167 36.3403 31.7015 35.6875 32.3542C35.0347 33.007 34.25 33.3334 33.3333 33.3334H6.66668ZM20 21.6667L6.66668 13.3334V30.0001H33.3333V13.3334L20 21.6667ZM20 18.3334L33.3333 10.0001H6.66668L20 18.3334ZM6.66668 13.3334V10.0001V30.0001V13.3334Z" fill="#28282B"/>
</svg>
