<svg width="83" height="75" viewBox="0 0 83 75" fill="none" xmlns="http://www.w3.org/2000/svg">
<path fill-rule="evenodd" clip-rule="evenodd" d="M39.402 1.5C40.5567 -0.5 43.4435 -0.5 44.5982 1.5L55.2136 19.8865C55.5951 19.8114 56.0027 19.8102 56.4215 19.8992L80.1403 24.9408C82.3992 25.4209 83.2913 28.1664 81.746 29.8826L65.7049 47.6981L68.1487 70.9487C68.3901 73.2454 66.0546 74.9422 63.9449 74.0029L41.9362 64.204L19.9275 74.0029C17.8178 74.9422 15.4823 73.2454 15.7237 70.9487L18.121 48.1405C18.0387 48.0669 17.9593 47.9877 17.8829 47.9029L1.65733 29.8826C0.112042 28.1664 1.00407 25.4209 3.26301 24.9408L26.9818 19.8992C27.594 19.7691 28.1822 19.8318 28.7002 20.0361L39.402 1.5ZM41.9362 58.4734L59.9669 45.3733L53.9971 27H29.8757C29.7187 27 29.5657 26.9884 29.4172 26.9663L23.526 45.0976L41.9362 58.4734Z" fill="url(#paint0_radial_253_801)"/>
<defs>
<radialGradient id="paint0_radial_253_801" cx="0" cy="0" r="1" gradientUnits="userSpaceOnUse" gradientTransform="translate(41.7017 37.1334) rotate(89.6884) scale(54.8674 60.3107)">
<stop stop-color="#FAFF00"/>
<stop offset="1" stop-color="#4EFF5F"/>
</radialGradient>
</defs>
</svg>
