<svg width="50" height="50" viewBox="0 0 50 50" fill="none" xmlns="http://www.w3.org/2000/svg">
<path d="M25 13C25 19.6274 19.6274 25 13 25C6.37258 25 1 19.6274 1 13C1 6.37258 6.37258 1 13 1C19.6274 1 25 6.37258 25 13Z" fill="#F26398"/>
<path d="M49 37C49 43.6274 43.6274 49 37 49C30.3726 49 25 43.6274 25 37C25 30.3726 30.3726 25 37 25C43.6274 25 49 30.3726 49 37Z" fill="#05DBF2"/>
<path d="M49 13C49 19.6274 43.6274 25 37 25C30.3726 25 25 19.6274 25 13C25 6.37258 30.3726 1 37 1C43.6274 1 49 6.37258 49 13Z" fill="#F2B705"/>
<path d="M25 37C25 43.6274 19.6274 49 13 49C6.37258 49 1 43.6274 1 37C1 30.3726 6.37258 25 13 25C19.6274 25 25 30.3726 25 37Z" fill="#F2CB05"/>
<path d="M13.3576 16.7402C11.0085 16.7704 9.21647 14.9332 9.21647 12.7496C9.21647 10.5661 11.0085 8.744 13.3576 8.77412C14.8635 8.78918 16.2489 9.46682 16.9416 11.0179L14.6979 12.2226C14.4569 11.7106 13.9751 11.3191 13.3576 11.3191C12.4993 11.3191 11.9271 11.9515 11.9271 12.7496C11.9271 13.5478 12.4993 14.1953 13.3576 14.1953C13.9751 14.1953 14.4569 13.8038 14.6979 13.2918L16.9416 14.4965C16.2489 16.0475 14.8635 16.7252 13.3576 16.7402Z" fill="white"/>
<path d="M36.8927 35.4094C35.8988 35.4094 35.5224 36.2075 35.5224 37.1562V40.5294H32.8118V36.8249C32.8118 34.6113 34.1068 32.7741 36.8927 32.7741C39.6786 32.7741 40.9737 34.6113 40.9737 36.8249V40.5294H38.2631V37.1562C38.2631 36.2075 37.8866 35.4094 36.8927 35.4094Z" fill="white"/>
</svg>
